<svg width="3500" height="1536" viewBox="0 0 3500 1536" fill="none" xmlns="http://www.w3.org/2000/svg">
<path d="M1056.08 1028.35C1050.53 1022.8 1041.54 1022.8 1035.99 1028.35L765.586 1298.75C760.034 1304.3 760.034 1313.29 765.586 1318.85C768.362 1321.62 771.998 1323.01 775.634 1323.01C779.27 1323.01 782.906 1321.62 785.682 1318.85L1056.08 1048.45C1061.63 1042.9 1061.63 1033.9 1056.08 1028.35Z" fill="url(#paint0_linear)"/>
<path d="M970.436 1298.38C964.884 1292.83 955.891 1292.83 950.339 1298.38L737.163 1511.55C731.612 1517.11 731.612 1526.1 737.163 1531.65C739.939 1534.43 743.575 1535.81 747.211 1535.81C750.847 1535.81 754.483 1534.43 757.259 1531.65L970.436 1318.47C975.988 1312.92 975.988 1303.93 970.436 1298.38Z" fill="url(#paint1_linear)"/>
<path d="M1240.46 1028.35C1234.91 1022.8 1225.92 1022.8 1220.37 1028.35L1007.19 1241.53C1001.64 1247.08 1001.64 1256.07 1007.19 1261.62C1009.96 1264.4 1013.6 1265.79 1017.24 1265.79C1020.87 1265.79 1024.51 1264.4 1027.28 1261.62L1240.46 1048.45C1246.01 1042.9 1246.01 1033.9 1240.46 1028.35Z" fill="url(#paint2_linear)"/>
<path d="M1508.08 1028.35C1502.53 1022.8 1493.54 1022.8 1487.99 1028.35L1217.59 1298.75C1212.03 1304.3 1212.03 1313.29 1217.59 1318.85C1220.36 1321.62 1224 1323.01 1227.63 1323.01C1231.27 1323.01 1234.91 1321.62 1237.68 1318.85L1508.08 1048.45C1513.63 1042.9 1513.63 1033.9 1508.08 1028.35Z" fill="url(#paint3_linear)"/>
<path d="M1692.84 1213.11C1687.28 1207.55 1678.29 1207.55 1672.74 1213.11L1402.34 1483.5C1396.79 1489.06 1396.79 1498.05 1402.34 1503.6C1405.12 1506.38 1408.75 1507.77 1412.39 1507.77C1416.02 1507.77 1419.66 1506.38 1422.44 1503.6L1692.84 1233.2C1698.39 1227.65 1698.39 1218.66 1692.84 1213.11Z" fill="url(#paint4_linear)"/>
<path d="M1692.46 1028.35C1686.91 1022.8 1677.92 1022.8 1672.37 1028.35L1459.19 1241.53C1453.64 1247.08 1453.64 1256.07 1459.19 1261.62C1461.96 1264.4 1465.6 1265.79 1469.24 1265.79C1472.87 1265.79 1476.51 1264.4 1479.28 1261.62L1692.46 1048.45C1698.01 1042.9 1698.01 1033.9 1692.46 1028.35Z" fill="url(#paint5_linear)"/>
<path d="M1240.84 700.918C1235.28 695.366 1226.29 695.366 1220.74 700.918L950.34 971.317C944.788 976.868 944.788 985.862 950.34 991.414C953.116 994.19 956.752 995.578 960.388 995.578C964.024 995.578 967.66 994.19 970.436 991.414L1240.84 721.015C1246.39 715.462 1246.39 706.469 1240.84 700.918Z" fill="url(#paint6_linear)"/>
<path d="M628.66 1177.16C623.108 1171.61 614.115 1171.61 608.563 1177.16L338.164 1447.56C332.612 1453.11 332.612 1462.11 338.164 1467.66C340.94 1470.44 344.576 1471.82 348.212 1471.82C351.848 1471.82 355.484 1470.44 358.26 1467.66L628.659 1197.26C634.211 1191.71 634.211 1182.72 628.66 1177.16Z" fill="url(#paint7_linear)"/>
<path d="M970.436 786.189C964.884 780.638 955.891 780.638 950.339 786.189L737.163 999.366C731.612 1004.92 731.612 1013.91 737.163 1019.46C739.939 1022.24 743.575 1023.63 747.211 1023.63C750.847 1023.63 754.483 1022.24 757.259 1019.46L970.436 806.285C975.988 800.733 975.988 791.74 970.436 786.189Z" fill="url(#paint8_linear)"/>
<path d="M1422.44 786.189C1416.88 780.638 1407.89 780.638 1402.34 786.189L1189.16 999.366C1183.61 1004.92 1183.61 1013.91 1189.16 1019.46C1191.94 1022.24 1195.58 1023.63 1199.21 1023.63C1202.85 1023.63 1206.48 1022.24 1209.26 1019.46L1422.44 806.285C1427.99 800.733 1427.99 791.74 1422.44 786.189Z" fill="url(#paint9_linear)"/>
<path d="M1692.46 516.164C1686.91 510.612 1677.92 510.612 1672.37 516.164L1459.19 729.341C1453.64 734.893 1453.64 743.886 1459.19 749.437C1461.96 752.213 1465.6 753.601 1469.24 753.601C1472.87 753.601 1476.51 752.213 1479.28 749.437L1692.46 536.26C1698.01 530.709 1698.01 521.716 1692.46 516.164Z" fill="url(#paint10_linear)"/>
<path d="M1692.84 188.918C1687.28 183.366 1678.29 183.366 1672.74 188.918L1402.34 459.317C1396.79 464.868 1396.79 473.862 1402.34 479.414C1405.12 482.19 1408.75 483.578 1412.39 483.578C1416.02 483.578 1419.66 482.19 1422.44 479.414L1692.84 209.015C1698.39 203.462 1698.39 194.469 1692.84 188.918Z" fill="url(#paint11_linear)"/>
<path d="M1422.44 274.189C1416.88 268.638 1407.89 268.638 1402.34 274.189L1189.16 487.366C1183.61 492.918 1183.61 501.911 1189.16 507.462C1191.94 510.238 1195.58 511.626 1199.21 511.626C1202.85 511.626 1206.48 510.238 1209.26 507.462L1422.44 294.285C1427.99 288.733 1427.99 279.74 1422.44 274.189Z" fill="url(#paint12_linear)"/>
<path d="M1062.44 459.163C1056.88 453.612 1047.89 453.612 1042.34 459.163L829.163 672.34C823.612 677.892 823.612 686.885 829.163 692.436C831.939 695.212 835.575 696.6 839.211 696.6C842.847 696.6 846.483 695.212 849.259 692.436L1062.44 479.259C1067.99 473.707 1067.99 464.714 1062.44 459.163Z" fill="url(#paint13_linear)"/>
<path d="M1694.44 743.163C1688.88 737.612 1679.89 737.612 1674.34 743.163L1461.16 956.34C1455.61 961.892 1455.61 970.885 1461.16 976.436C1463.94 979.212 1467.58 980.6 1471.21 980.6C1474.85 980.6 1478.48 979.212 1481.26 976.436L1694.44 763.259C1699.99 757.707 1699.99 748.714 1694.44 743.163Z" fill="url(#paint14_linear)"/>
<path d="M2507.44 971.163C2501.88 965.612 2492.89 965.612 2487.34 971.163L2274.16 1184.34C2268.61 1189.89 2268.61 1198.89 2274.16 1204.44C2276.94 1207.21 2280.58 1208.6 2284.21 1208.6C2287.85 1208.6 2291.48 1207.21 2294.26 1204.44L2507.44 991.259C2512.99 985.707 2512.99 976.714 2507.44 971.163Z" fill="url(#paint15_linear)"/>
<path d="M1692.46 4.164C1686.91 -1.388 1677.92 -1.388 1672.37 4.164L1459.19 217.341C1453.64 222.893 1453.64 231.886 1459.19 237.437C1461.96 240.213 1465.6 241.601 1469.24 241.601C1472.87 241.601 1476.51 240.213 1479.28 237.437L1692.46 24.26C1698.01 18.709 1698.01 9.716 1692.46 4.164Z" fill="url(#paint16_linear)"/>
<path d="M2112.44 4.164C2106.89 -1.388 2097.89 -1.388 2092.34 4.164L1879.16 217.341C1873.61 222.893 1873.61 231.886 1879.16 237.437C1881.94 240.213 1885.58 241.601 1889.21 241.601C1892.85 241.601 1896.48 240.213 1899.26 237.437L2112.44 24.26C2117.99 18.709 2117.99 9.716 2112.44 4.164Z" fill="url(#paint17_linear)"/>
<path d="M1333.44 61.164C1327.89 55.612 1318.89 55.612 1313.34 61.164L1100.16 274.341C1094.61 279.893 1094.61 288.886 1100.16 294.437C1102.94 297.213 1106.58 298.601 1110.21 298.601C1113.85 298.601 1117.48 297.213 1120.26 294.437L1333.44 81.26C1338.99 75.709 1338.99 66.716 1333.44 61.164Z" fill="url(#paint18_linear)"/>
<path d="M2984.44 395.164C2978.89 389.612 2969.89 389.612 2964.34 395.164L2751.16 608.341C2745.61 613.893 2745.61 622.886 2751.16 628.437C2753.94 631.213 2757.58 632.601 2761.21 632.601C2764.85 632.601 2768.48 631.213 2771.26 628.437L2984.44 415.26C2989.99 409.709 2989.99 400.716 2984.44 395.164Z" fill="url(#paint19_linear)"/>
<path d="M2204.84 188.918C2199.28 183.366 2190.29 183.366 2184.74 188.918L1914.34 459.317C1908.79 464.868 1908.79 473.862 1914.34 479.414C1917.12 482.19 1920.75 483.578 1924.39 483.578C1928.02 483.578 1931.66 482.19 1934.44 479.414L2204.83 209.015C2210.39 203.462 2210.39 194.469 2204.84 188.918Z" fill="url(#paint20_linear)"/>
<path d="M3162.66 488.164C3157.11 482.612 3148.11 482.612 3142.56 488.164L2872.16 758.563C2866.61 764.114 2866.61 773.108 2872.16 778.66C2874.94 781.436 2878.58 782.824 2882.21 782.824C2885.85 782.824 2889.48 781.436 2892.26 778.66L3162.66 508.261C3168.21 502.708 3168.21 493.715 3162.66 488.164Z" fill="url(#paint21_linear)"/>
<path d="M3041.66 96.164C3036.11 90.612 3027.11 90.612 3021.56 96.164L2751.16 366.563C2745.61 372.114 2745.61 381.108 2751.16 386.66C2753.94 389.436 2757.58 390.824 2761.21 390.824C2764.85 390.824 2768.48 389.436 2771.26 386.66L3041.66 116.261C3047.21 110.708 3047.21 101.715 3041.66 96.164Z" fill="url(#paint22_linear)"/>
<path d="M1934.44 274.189C1928.88 268.638 1919.89 268.638 1914.34 274.189L1701.16 487.366C1695.61 492.918 1695.61 501.911 1701.16 507.462C1703.94 510.238 1707.57 511.626 1711.21 511.626C1714.85 511.626 1718.48 510.238 1721.26 507.462L1934.44 294.285C1939.99 288.733 1939.99 279.74 1934.44 274.189Z" fill="url(#paint23_linear)"/>
<path d="M2472.08 4.164C2466.53 -1.388 2457.54 -1.388 2451.98 4.164L2181.59 274.563C2176.03 280.115 2176.03 289.108 2181.59 294.66C2184.36 297.436 2188 298.824 2191.63 298.824C2195.27 298.824 2198.91 297.436 2201.68 294.66L2472.08 24.26C2477.63 18.709 2477.63 9.716 2472.08 4.164Z" fill="url(#paint24_linear)"/>
<path d="M2656.84 188.918C2651.28 183.366 2642.29 183.366 2636.74 188.918L2366.34 459.317C2360.79 464.868 2360.79 473.862 2366.34 479.414C2369.12 482.19 2372.75 483.578 2376.39 483.578C2380.02 483.578 2383.66 482.19 2386.44 479.414L2656.83 209.015C2662.39 203.462 2662.39 194.469 2656.84 188.918Z" fill="url(#paint25_linear)"/>
<path d="M2386.44 274.189C2380.88 268.638 2371.89 268.638 2366.34 274.189L2153.16 487.366C2147.61 492.918 2147.61 501.911 2153.16 507.462C2155.94 510.238 2159.57 511.626 2163.21 511.626C2166.85 511.626 2170.48 510.238 2173.26 507.462L2386.44 294.285C2391.99 288.733 2391.99 279.74 2386.44 274.189Z" fill="url(#paint26_linear)"/>
<path d="M2020.08 516.164C2014.53 510.612 2005.54 510.612 1999.98 516.164L1729.59 786.563C1724.03 792.115 1724.03 801.108 1729.59 806.66C1732.36 809.436 1736 810.824 1739.63 810.824C1743.27 810.824 1746.91 809.436 1749.68 806.66L2020.08 536.26C2025.63 530.709 2025.63 521.716 2020.08 516.164Z" fill="url(#paint27_linear)"/>
<path d="M2204.84 700.918C2199.28 695.366 2190.29 695.366 2184.74 700.918L1914.34 971.317C1908.79 976.868 1908.79 985.862 1914.34 991.414C1917.12 994.19 1920.75 995.578 1924.39 995.578C1928.02 995.578 1931.66 994.19 1934.44 991.414L2204.83 721.015C2210.39 715.462 2210.39 706.469 2204.84 700.918Z" fill="url(#paint28_linear)"/>
<path d="M1934.44 786.189C1928.88 780.638 1919.89 780.638 1914.34 786.189L1701.16 999.366C1695.61 1004.92 1695.61 1013.91 1701.16 1019.46C1703.94 1022.24 1707.57 1023.63 1711.21 1023.63C1714.85 1023.63 1718.48 1022.24 1721.26 1019.46L1934.44 806.285C1939.99 800.733 1939.99 791.74 1934.44 786.189Z" fill="url(#paint29_linear)"/>
<path d="M2472.08 516.164C2466.53 510.612 2457.54 510.612 2451.98 516.164L2181.59 786.563C2176.03 792.115 2176.03 801.108 2181.59 806.66C2184.36 809.436 2188 810.824 2191.63 810.824C2195.27 810.824 2198.91 809.436 2201.68 806.66L2472.08 536.26C2477.63 530.709 2477.63 521.716 2472.08 516.164Z" fill="url(#paint30_linear)"/>
<path d="M2834.66 999.164C2829.11 993.612 2820.11 993.612 2814.56 999.164L2544.16 1269.56C2538.61 1275.11 2538.61 1284.11 2544.16 1289.66C2546.94 1292.44 2550.58 1293.82 2554.21 1293.82C2557.85 1293.82 2561.48 1292.44 2564.26 1289.66L2834.66 1019.26C2840.21 1013.71 2840.21 1004.72 2834.66 999.164Z" fill="url(#paint31_linear)"/>
<path d="M2205.66 1178.16C2200.11 1172.61 2191.11 1172.61 2185.56 1178.16L1915.16 1448.56C1909.61 1454.11 1909.61 1463.11 1915.16 1468.66C1917.94 1471.44 1921.58 1472.82 1925.21 1472.82C1928.85 1472.82 1932.48 1471.44 1935.26 1468.66L2205.66 1198.26C2211.21 1192.71 2211.21 1183.72 2205.66 1178.16Z" fill="url(#paint32_linear)"/>
<path d="M2386.44 786.189C2380.88 780.638 2371.89 780.638 2366.34 786.189L2153.16 999.366C2147.61 1004.92 2147.61 1013.91 2153.16 1019.46C2155.94 1022.24 2159.57 1023.63 2163.21 1023.63C2166.85 1023.63 2170.48 1022.24 2173.26 1019.46L2386.44 806.285C2391.99 800.733 2391.99 791.74 2386.44 786.189Z" fill="url(#paint33_linear)"/>
<path d="M2656.46 516.164C2650.91 510.612 2641.92 510.612 2636.36 516.164L2423.19 729.341C2417.63 734.893 2417.63 743.886 2423.19 749.437C2425.96 752.213 2429.6 753.601 2433.23 753.601C2436.87 753.601 2440.51 752.213 2443.28 749.437L2656.46 536.26C2662.01 530.709 2662.01 521.716 2656.46 516.164Z" fill="url(#paint34_linear)"/>
<path d="M2020.08 1028.16C2014.53 1022.61 2005.54 1022.61 1999.98 1028.16L1729.59 1298.56C1724.03 1304.11 1724.03 1313.11 1729.59 1318.66C1732.36 1321.44 1736 1322.82 1739.63 1322.82C1743.27 1322.82 1746.91 1321.44 1749.68 1318.66L2020.08 1048.26C2025.63 1042.71 2025.63 1033.72 2020.08 1028.16Z" fill="url(#paint35_linear)"/>
<path d="M2204.46 1028.16C2198.91 1022.61 2189.92 1022.61 2184.36 1028.16L1971.19 1241.34C1965.63 1246.89 1965.63 1255.89 1971.19 1261.44C1973.96 1264.21 1977.6 1265.6 1981.23 1265.6C1984.87 1265.6 1988.51 1264.21 1991.28 1261.44L2204.46 1048.26C2210.01 1042.71 2210.01 1033.72 2204.46 1028.16Z" fill="url(#paint36_linear)"/>
<defs>
<linearGradient id="paint0_linear" x1="717.999" y1="1306.5" x2="1029" y2="978" gradientUnits="userSpaceOnUse">
<stop stop-color="#39559C" stop-opacity="0.55"/>
<stop offset="0.283027" stop-color="#718EDA" stop-opacity="0.53"/>
<stop offset="0.514229" stop-color="#A3B8EC" stop-opacity="0.52"/>
<stop offset="0.752972" stop-color="#BACBF4" stop-opacity="0.51"/>
<stop offset="1" stop-color="#DDE7FF" stop-opacity="0.5"/>
</linearGradient>
<linearGradient id="paint1_linear" x1="697.892" y1="1522.46" x2="949.337" y2="1256.87" gradientUnits="userSpaceOnUse">
<stop stop-color="#39559C" stop-opacity="0.55"/>
<stop offset="0.283027" stop-color="#718EDA" stop-opacity="0.53"/>
<stop offset="0.514229" stop-color="#A3B8EC" stop-opacity="0.52"/>
<stop offset="0.752972" stop-color="#BACBF4" stop-opacity="0.51"/>
<stop offset="1" stop-color="#DDE7FF" stop-opacity="0.5"/>
</linearGradient>
<linearGradient id="paint2_linear" x1="967.915" y1="1252.44" x2="1219.36" y2="986.844" gradientUnits="userSpaceOnUse">
<stop stop-color="#39559C" stop-opacity="0.55"/>
<stop offset="0.283027" stop-color="#718EDA" stop-opacity="0.53"/>
<stop offset="0.514229" stop-color="#A3B8EC" stop-opacity="0.52"/>
<stop offset="0.752972" stop-color="#BACBF4" stop-opacity="0.51"/>
<stop offset="1" stop-color="#DDE7FF" stop-opacity="0.5"/>
</linearGradient>
<linearGradient id="paint3_linear" x1="1170" y1="1306.5" x2="1481" y2="978" gradientUnits="userSpaceOnUse">
<stop stop-color="#39559C" stop-opacity="0.55"/>
<stop offset="0.283027" stop-color="#718EDA" stop-opacity="0.53"/>
<stop offset="0.514229" stop-color="#A3B8EC" stop-opacity="0.52"/>
<stop offset="0.752972" stop-color="#BACBF4" stop-opacity="0.51"/>
<stop offset="1" stop-color="#DDE7FF" stop-opacity="0.5"/>
</linearGradient>
<linearGradient id="paint4_linear" x1="1354.75" y1="1491.25" x2="1665.75" y2="1162.75" gradientUnits="userSpaceOnUse">
<stop stop-color="#39559C" stop-opacity="0.55"/>
<stop offset="0.283027" stop-color="#718EDA" stop-opacity="0.53"/>
<stop offset="0.514229" stop-color="#A3B8EC" stop-opacity="0.52"/>
<stop offset="0.752972" stop-color="#BACBF4" stop-opacity="0.51"/>
<stop offset="1" stop-color="#DDE7FF" stop-opacity="0.5"/>
</linearGradient>
<linearGradient id="paint5_linear" x1="1419.92" y1="1252.44" x2="1671.36" y2="986.844" gradientUnits="userSpaceOnUse">
<stop stop-color="#39559C" stop-opacity="0.55"/>
<stop offset="0.283027" stop-color="#718EDA" stop-opacity="0.53"/>
<stop offset="0.514229" stop-color="#A3B8EC" stop-opacity="0.52"/>
<stop offset="0.752972" stop-color="#BACBF4" stop-opacity="0.51"/>
<stop offset="1" stop-color="#DDE7FF" stop-opacity="0.5"/>
</linearGradient>
<linearGradient id="paint6_linear" x1="902.753" y1="979.067" x2="1213.75" y2="650.567" gradientUnits="userSpaceOnUse">
<stop stop-color="#39559C" stop-opacity="0.55"/>
<stop offset="0.283027" stop-color="#718EDA" stop-opacity="0.53"/>
<stop offset="0.514229" stop-color="#A3B8EC" stop-opacity="0.52"/>
<stop offset="0.752972" stop-color="#BACBF4" stop-opacity="0.51"/>
<stop offset="1" stop-color="#DDE7FF" stop-opacity="0.5"/>
</linearGradient>
<linearGradient id="paint7_linear" x1="290.577" y1="1455.31" x2="601.577" y2="1126.81" gradientUnits="userSpaceOnUse">
<stop stop-color="#39559C" stop-opacity="0.55"/>
<stop offset="0.283027" stop-color="#718EDA" stop-opacity="0.53"/>
<stop offset="0.514229" stop-color="#A3B8EC" stop-opacity="0.52"/>
<stop offset="0.752972" stop-color="#BACBF4" stop-opacity="0.51"/>
<stop offset="1" stop-color="#DDE7FF" stop-opacity="0.5"/>
</linearGradient>
<linearGradient id="paint8_linear" x1="697.892" y1="1010.28" x2="949.337" y2="744.683" gradientUnits="userSpaceOnUse">
<stop stop-color="#39559C" stop-opacity="0.55"/>
<stop offset="0.283027" stop-color="#718EDA" stop-opacity="0.53"/>
<stop offset="0.514229" stop-color="#A3B8EC" stop-opacity="0.52"/>
<stop offset="0.752972" stop-color="#BACBF4" stop-opacity="0.51"/>
<stop offset="1" stop-color="#DDE7FF" stop-opacity="0.5"/>
</linearGradient>
<linearGradient id="paint9_linear" x1="1149.89" y1="1010.28" x2="1401.34" y2="744.683" gradientUnits="userSpaceOnUse">
<stop stop-color="#39559C" stop-opacity="0.55"/>
<stop offset="0.283027" stop-color="#718EDA" stop-opacity="0.53"/>
<stop offset="0.514229" stop-color="#A3B8EC" stop-opacity="0.52"/>
<stop offset="0.752972" stop-color="#BACBF4" stop-opacity="0.51"/>
<stop offset="1" stop-color="#DDE7FF" stop-opacity="0.5"/>
</linearGradient>
<linearGradient id="paint10_linear" x1="1419.92" y1="740.252" x2="1671.36" y2="474.657" gradientUnits="userSpaceOnUse">
<stop stop-color="#39559C" stop-opacity="0.55"/>
<stop offset="0.283027" stop-color="#718EDA" stop-opacity="0.53"/>
<stop offset="0.514229" stop-color="#A3B8EC" stop-opacity="0.52"/>
<stop offset="0.752972" stop-color="#BACBF4" stop-opacity="0.51"/>
<stop offset="1" stop-color="#DDE7FF" stop-opacity="0.5"/>
</linearGradient>
<linearGradient id="paint11_linear" x1="1354.75" y1="467.067" x2="1665.75" y2="138.567" gradientUnits="userSpaceOnUse">
<stop stop-color="#39559C" stop-opacity="0.55"/>
<stop offset="0.283027" stop-color="#718EDA" stop-opacity="0.53"/>
<stop offset="0.514229" stop-color="#A3B8EC" stop-opacity="0.52"/>
<stop offset="0.752972" stop-color="#BACBF4" stop-opacity="0.51"/>
<stop offset="1" stop-color="#DDE7FF" stop-opacity="0.5"/>
</linearGradient>
<linearGradient id="paint12_linear" x1="1149.89" y1="498.277" x2="1401.34" y2="232.683" gradientUnits="userSpaceOnUse">
<stop stop-color="#39559C" stop-opacity="0.55"/>
<stop offset="0.283027" stop-color="#718EDA" stop-opacity="0.53"/>
<stop offset="0.514229" stop-color="#A3B8EC" stop-opacity="0.52"/>
<stop offset="0.752972" stop-color="#BACBF4" stop-opacity="0.51"/>
<stop offset="1" stop-color="#DDE7FF" stop-opacity="0.5"/>
</linearGradient>
<linearGradient id="paint13_linear" x1="789.892" y1="683.251" x2="1041.34" y2="417.657" gradientUnits="userSpaceOnUse">
<stop stop-color="#39559C" stop-opacity="0.55"/>
<stop offset="0.283027" stop-color="#718EDA" stop-opacity="0.53"/>
<stop offset="0.514229" stop-color="#A3B8EC" stop-opacity="0.52"/>
<stop offset="0.752972" stop-color="#BACBF4" stop-opacity="0.51"/>
<stop offset="1" stop-color="#DDE7FF" stop-opacity="0.5"/>
</linearGradient>
<linearGradient id="paint14_linear" x1="1421.89" y1="967.251" x2="1673.34" y2="701.657" gradientUnits="userSpaceOnUse">
<stop stop-color="#39559C" stop-opacity="0.55"/>
<stop offset="0.283027" stop-color="#718EDA" stop-opacity="0.53"/>
<stop offset="0.514229" stop-color="#A3B8EC" stop-opacity="0.52"/>
<stop offset="0.752972" stop-color="#BACBF4" stop-opacity="0.51"/>
<stop offset="1" stop-color="#DDE7FF" stop-opacity="0.5"/>
</linearGradient>
<linearGradient id="paint15_linear" x1="2234.89" y1="1195.25" x2="2486.34" y2="929.657" gradientUnits="userSpaceOnUse">
<stop stop-color="#39559C" stop-opacity="0.55"/>
<stop offset="0.283027" stop-color="#718EDA" stop-opacity="0.53"/>
<stop offset="0.514229" stop-color="#A3B8EC" stop-opacity="0.52"/>
<stop offset="0.752972" stop-color="#BACBF4" stop-opacity="0.51"/>
<stop offset="1" stop-color="#DDE7FF" stop-opacity="0.5"/>
</linearGradient>
<linearGradient id="paint16_linear" x1="1419.92" y1="228.252" x2="1671.36" y2="-37.3434" gradientUnits="userSpaceOnUse">
<stop stop-color="#39559C" stop-opacity="0.55"/>
<stop offset="0.283027" stop-color="#718EDA" stop-opacity="0.53"/>
<stop offset="0.514229" stop-color="#A3B8EC" stop-opacity="0.52"/>
<stop offset="0.752972" stop-color="#BACBF4" stop-opacity="0.51"/>
<stop offset="1" stop-color="#DDE7FF" stop-opacity="0.5"/>
</linearGradient>
<linearGradient id="paint17_linear" x1="1839.89" y1="228.252" x2="2091.34" y2="-37.3434" gradientUnits="userSpaceOnUse">
<stop stop-color="#39559C" stop-opacity="0.55"/>
<stop offset="0.283027" stop-color="#718EDA" stop-opacity="0.53"/>
<stop offset="0.514229" stop-color="#A3B8EC" stop-opacity="0.52"/>
<stop offset="0.752972" stop-color="#BACBF4" stop-opacity="0.51"/>
<stop offset="1" stop-color="#DDE7FF" stop-opacity="0.5"/>
</linearGradient>
<linearGradient id="paint18_linear" x1="1060.89" y1="285.252" x2="1312.34" y2="19.6566" gradientUnits="userSpaceOnUse">
<stop stop-color="#39559C" stop-opacity="0.55"/>
<stop offset="0.283027" stop-color="#718EDA" stop-opacity="0.53"/>
<stop offset="0.514229" stop-color="#A3B8EC" stop-opacity="0.52"/>
<stop offset="0.752972" stop-color="#BACBF4" stop-opacity="0.51"/>
<stop offset="1" stop-color="#DDE7FF" stop-opacity="0.5"/>
</linearGradient>
<linearGradient id="paint19_linear" x1="2711.89" y1="619.252" x2="2963.34" y2="353.657" gradientUnits="userSpaceOnUse">
<stop stop-color="#39559C" stop-opacity="0.55"/>
<stop offset="0.283027" stop-color="#718EDA" stop-opacity="0.53"/>
<stop offset="0.514229" stop-color="#A3B8EC" stop-opacity="0.52"/>
<stop offset="0.752972" stop-color="#BACBF4" stop-opacity="0.51"/>
<stop offset="1" stop-color="#DDE7FF" stop-opacity="0.5"/>
</linearGradient>
<linearGradient id="paint20_linear" x1="1866.75" y1="467.067" x2="2177.75" y2="138.567" gradientUnits="userSpaceOnUse">
<stop stop-color="#39559C" stop-opacity="0.55"/>
<stop offset="0.283027" stop-color="#718EDA" stop-opacity="0.53"/>
<stop offset="0.514229" stop-color="#A3B8EC" stop-opacity="0.52"/>
<stop offset="0.752972" stop-color="#BACBF4" stop-opacity="0.51"/>
<stop offset="1" stop-color="#DDE7FF" stop-opacity="0.5"/>
</linearGradient>
<linearGradient id="paint21_linear" x1="2824.58" y1="766.313" x2="3135.58" y2="437.813" gradientUnits="userSpaceOnUse">
<stop stop-color="#39559C" stop-opacity="0.55"/>
<stop offset="0.283027" stop-color="#718EDA" stop-opacity="0.53"/>
<stop offset="0.514229" stop-color="#A3B8EC" stop-opacity="0.52"/>
<stop offset="0.752972" stop-color="#BACBF4" stop-opacity="0.51"/>
<stop offset="1" stop-color="#DDE7FF" stop-opacity="0.5"/>
</linearGradient>
<linearGradient id="paint22_linear" x1="2703.58" y1="374.313" x2="3014.58" y2="45.8131" gradientUnits="userSpaceOnUse">
<stop stop-color="#39559C" stop-opacity="0.55"/>
<stop offset="0.283027" stop-color="#718EDA" stop-opacity="0.53"/>
<stop offset="0.514229" stop-color="#A3B8EC" stop-opacity="0.52"/>
<stop offset="0.752972" stop-color="#BACBF4" stop-opacity="0.51"/>
<stop offset="1" stop-color="#DDE7FF" stop-opacity="0.5"/>
</linearGradient>
<linearGradient id="paint23_linear" x1="1661.89" y1="498.277" x2="1913.34" y2="232.683" gradientUnits="userSpaceOnUse">
<stop stop-color="#39559C" stop-opacity="0.55"/>
<stop offset="0.283027" stop-color="#718EDA" stop-opacity="0.53"/>
<stop offset="0.514229" stop-color="#A3B8EC" stop-opacity="0.52"/>
<stop offset="0.752972" stop-color="#BACBF4" stop-opacity="0.51"/>
<stop offset="1" stop-color="#DDE7FF" stop-opacity="0.5"/>
</linearGradient>
<linearGradient id="paint24_linear" x1="2134" y1="282.313" x2="2445" y2="-46.187" gradientUnits="userSpaceOnUse">
<stop stop-color="#39559C" stop-opacity="0.55"/>
<stop offset="0.283027" stop-color="#718EDA" stop-opacity="0.53"/>
<stop offset="0.514229" stop-color="#A3B8EC" stop-opacity="0.52"/>
<stop offset="0.752972" stop-color="#BACBF4" stop-opacity="0.51"/>
<stop offset="1" stop-color="#DDE7FF" stop-opacity="0.5"/>
</linearGradient>
<linearGradient id="paint25_linear" x1="2318.75" y1="467.067" x2="2629.75" y2="138.567" gradientUnits="userSpaceOnUse">
<stop stop-color="#39559C" stop-opacity="0.55"/>
<stop offset="0.283027" stop-color="#718EDA" stop-opacity="0.53"/>
<stop offset="0.514229" stop-color="#A3B8EC" stop-opacity="0.52"/>
<stop offset="0.752972" stop-color="#BACBF4" stop-opacity="0.51"/>
<stop offset="1" stop-color="#DDE7FF" stop-opacity="0.5"/>
</linearGradient>
<linearGradient id="paint26_linear" x1="2113.89" y1="498.277" x2="2365.34" y2="232.683" gradientUnits="userSpaceOnUse">
<stop stop-color="#39559C" stop-opacity="0.55"/>
<stop offset="0.283027" stop-color="#718EDA" stop-opacity="0.53"/>
<stop offset="0.514229" stop-color="#A3B8EC" stop-opacity="0.52"/>
<stop offset="0.752972" stop-color="#BACBF4" stop-opacity="0.51"/>
<stop offset="1" stop-color="#DDE7FF" stop-opacity="0.5"/>
</linearGradient>
<linearGradient id="paint27_linear" x1="1682" y1="794.313" x2="1993" y2="465.813" gradientUnits="userSpaceOnUse">
<stop stop-color="#39559C" stop-opacity="0.55"/>
<stop offset="0.283027" stop-color="#718EDA" stop-opacity="0.53"/>
<stop offset="0.514229" stop-color="#A3B8EC" stop-opacity="0.52"/>
<stop offset="0.752972" stop-color="#BACBF4" stop-opacity="0.51"/>
<stop offset="1" stop-color="#DDE7FF" stop-opacity="0.5"/>
</linearGradient>
<linearGradient id="paint28_linear" x1="1866.75" y1="979.067" x2="2177.75" y2="650.567" gradientUnits="userSpaceOnUse">
<stop stop-color="#39559C" stop-opacity="0.55"/>
<stop offset="0.283027" stop-color="#718EDA" stop-opacity="0.53"/>
<stop offset="0.514229" stop-color="#A3B8EC" stop-opacity="0.52"/>
<stop offset="0.752972" stop-color="#BACBF4" stop-opacity="0.51"/>
<stop offset="1" stop-color="#DDE7FF" stop-opacity="0.5"/>
</linearGradient>
<linearGradient id="paint29_linear" x1="1661.89" y1="1010.28" x2="1913.34" y2="744.683" gradientUnits="userSpaceOnUse">
<stop stop-color="#39559C" stop-opacity="0.55"/>
<stop offset="0.283027" stop-color="#718EDA" stop-opacity="0.53"/>
<stop offset="0.514229" stop-color="#A3B8EC" stop-opacity="0.52"/>
<stop offset="0.752972" stop-color="#BACBF4" stop-opacity="0.51"/>
<stop offset="1" stop-color="#DDE7FF" stop-opacity="0.5"/>
</linearGradient>
<linearGradient id="paint30_linear" x1="2134" y1="794.313" x2="2445" y2="465.813" gradientUnits="userSpaceOnUse">
<stop stop-color="#39559C" stop-opacity="0.55"/>
<stop offset="0.283027" stop-color="#718EDA" stop-opacity="0.53"/>
<stop offset="0.514229" stop-color="#A3B8EC" stop-opacity="0.52"/>
<stop offset="0.752972" stop-color="#BACBF4" stop-opacity="0.51"/>
<stop offset="1" stop-color="#DDE7FF" stop-opacity="0.5"/>
</linearGradient>
<linearGradient id="paint31_linear" x1="2496.58" y1="1277.31" x2="2807.58" y2="948.813" gradientUnits="userSpaceOnUse">
<stop stop-color="#39559C" stop-opacity="0.55"/>
<stop offset="0.283027" stop-color="#718EDA" stop-opacity="0.53"/>
<stop offset="0.514229" stop-color="#A3B8EC" stop-opacity="0.52"/>
<stop offset="0.752972" stop-color="#BACBF4" stop-opacity="0.51"/>
<stop offset="1" stop-color="#DDE7FF" stop-opacity="0.5"/>
</linearGradient>
<linearGradient id="paint32_linear" x1="1867.58" y1="1456.31" x2="2178.58" y2="1127.81" gradientUnits="userSpaceOnUse">
<stop stop-color="#39559C" stop-opacity="0.55"/>
<stop offset="0.283027" stop-color="#718EDA" stop-opacity="0.53"/>
<stop offset="0.514229" stop-color="#A3B8EC" stop-opacity="0.52"/>
<stop offset="0.752972" stop-color="#BACBF4" stop-opacity="0.51"/>
<stop offset="1" stop-color="#DDE7FF" stop-opacity="0.5"/>
</linearGradient>
<linearGradient id="paint33_linear" x1="2113.89" y1="1010.28" x2="2365.34" y2="744.683" gradientUnits="userSpaceOnUse">
<stop stop-color="#39559C" stop-opacity="0.55"/>
<stop offset="0.283027" stop-color="#718EDA" stop-opacity="0.53"/>
<stop offset="0.514229" stop-color="#A3B8EC" stop-opacity="0.52"/>
<stop offset="0.752972" stop-color="#BACBF4" stop-opacity="0.51"/>
<stop offset="1" stop-color="#DDE7FF" stop-opacity="0.5"/>
</linearGradient>
<linearGradient id="paint34_linear" x1="2383.91" y1="740.252" x2="2635.36" y2="474.657" gradientUnits="userSpaceOnUse">
<stop stop-color="#39559C" stop-opacity="0.55"/>
<stop offset="0.283027" stop-color="#718EDA" stop-opacity="0.53"/>
<stop offset="0.514229" stop-color="#A3B8EC" stop-opacity="0.52"/>
<stop offset="0.752972" stop-color="#BACBF4" stop-opacity="0.51"/>
<stop offset="1" stop-color="#DDE7FF" stop-opacity="0.5"/>
</linearGradient>
<linearGradient id="paint35_linear" x1="1682" y1="1306.31" x2="1993" y2="977.813" gradientUnits="userSpaceOnUse">
<stop stop-color="#39559C" stop-opacity="0.55"/>
<stop offset="0.283027" stop-color="#718EDA" stop-opacity="0.53"/>
<stop offset="0.514229" stop-color="#A3B8EC" stop-opacity="0.52"/>
<stop offset="0.752972" stop-color="#BACBF4" stop-opacity="0.51"/>
<stop offset="1" stop-color="#DDE7FF" stop-opacity="0.5"/>
</linearGradient>
<linearGradient id="paint36_linear" x1="1931.91" y1="1252.25" x2="2183.36" y2="986.657" gradientUnits="userSpaceOnUse">
<stop stop-color="#39559C" stop-opacity="0.55"/>
<stop offset="0.283027" stop-color="#718EDA" stop-opacity="0.53"/>
<stop offset="0.514229" stop-color="#A3B8EC" stop-opacity="0.52"/>
<stop offset="0.752972" stop-color="#BACBF4" stop-opacity="0.51"/>
<stop offset="1" stop-color="#DDE7FF" stop-opacity="0.5"/>
</linearGradient>
</defs>
</svg>
